<svg xmlns="http://www.w3.org/2000/svg" width="24" height="24.168" viewBox="0 0 24 24.168">
  <g id="a79190059ea375c5a2754228bfb00b8f" transform="translate(24) rotate(90)">
    <path id="Trazado_1917" data-name="Trazado 1917" d="M0,0H24V24H0Z" transform="translate(0 0)" fill="none"/>
    <path id="Trazado_1918" data-name="Trazado 1918" d="M9.5,5.749v10.58a4.116,4.116,0,0,1-3.61,4.15A3.993,3.993,0,0,1,1.5,16.5V4.139a2.6,2.6,0,0,1,2.24-2.63A2.5,2.5,0,0,1,6.5,4V14.5a1,1,0,0,1-2,0V5.749a.75.75,0,0,0-1.5,0v8.61a2.6,2.6,0,0,0,2.24,2.63A2.5,2.5,0,0,0,8,14.5V4.169A4.116,4.116,0,0,0,4.39.019,4,4,0,0,0,0,4v12.27a5.659,5.659,0,0,0,4.96,5.71A5.505,5.505,0,0,0,11,16.5V5.749a.75.75,0,0,0-1.5,0Z" transform="translate(0.832 8.112) rotate(-45)" fill="#ff4a4a"/>
  </g>
</svg>
