<svg xmlns="http://www.w3.org/2000/svg" width="24" height="24" viewBox="0 0 24 24">
  <g id="vuesax_linear_document-text" data-name="vuesax linear document-text" transform="translate(-257.244 -367.484)">
    <g id="document-text">
      <path id="Vector" d="M278.244,374.484v10c0,5,0,5-5,5h-8c-3.5,0-5-2-5-5v-10c0-5,0-5,5-5h8C276.744,369.484,278.244,371.484,278.244,374.484Z" fill="none" stroke="#32146d" stroke-linecap="round" stroke-linejoin="round" stroke-width="1.5"/>
      <path id="Vector-2" d="M271.744,371.984v2.463a1.537,1.537,0,0,0,1.537,1.537h2.463" fill="none" stroke="#32146d" stroke-linecap="round" stroke-linejoin="round" stroke-width="1.5"/>
      <path id="Vector-5" d="M257.244,367.484h24v24h-24Z" fill="none"/>
      <path id="Trazado_73" data-name="Trazado 73" d="M266.98,382.05a1.541,1.541,0,0,0-.72-.592,2.774,2.774,0,0,0-1.088-.2h-2.144a.184.184,0,0,0-.135.056.192.192,0,0,0-.057.144v5.208a.193.193,0,0,0,.192.192h.761a.181.181,0,0,0,.139-.056.191.191,0,0,0,.052-.136V384.8h1.192a2.831,2.831,0,0,0,1.088-.192,1.536,1.536,0,0,0,.72-.58,1.758,1.758,0,0,0,.256-.988A1.781,1.781,0,0,0,266.98,382.05Zm-1.136,1.64a1.041,1.041,0,0,1-.712.22h-1.168v-1.76h1.168a.961.961,0,0,1,.728.244.894.894,0,0,1,.232.644A.824.824,0,0,1,265.844,383.69Z" fill="#ff4a4a"/>
      <path id="Trazado_74" data-name="Trazado 74" d="M271.964,383.438a2.5,2.5,0,0,0-.276-1.192,1.7,1.7,0,0,0-.792-.736,3.12,3.12,0,0,0-1.332-.248h-1.952a.184.184,0,0,0-.135.056.192.192,0,0,0-.057.144v5.208a.193.193,0,0,0,.192.192H269.6a3.179,3.179,0,0,0,1.316-.236,1.6,1.6,0,0,0,.772-.72,2.729,2.729,0,0,0,.272-1.228c.011-.229.016-.435.016-.616S271.975,383.672,271.964,383.438Zm-1.108.8q0,.18-.012.42a1.885,1.885,0,0,1-.139.748.821.821,0,0,1-.413.412,1.769,1.769,0,0,1-.728.128h-1.032v-3.76h.992a1.138,1.138,0,0,1,1.32,1.28c.006.155.01.292.012.412S270.859,384.114,270.856,384.234Z" fill="#ff4a4a"/>
      <path id="Trazado_75" data-name="Trazado 75" d="M276.165,381.318a.2.2,0,0,0-.144-.056h-3.473a.184.184,0,0,0-.135.056.192.192,0,0,0-.057.144v5.208a.193.193,0,0,0,.192.192h.7a.2.2,0,0,0,.144-.056.184.184,0,0,0,.057-.136v-1.984h2.407a.2.2,0,0,0,.144-.056.184.184,0,0,0,.057-.136v-.56a.193.193,0,0,0-.2-.2h-2.407v-1.52h2.568a.2.2,0,0,0,.144-.052.182.182,0,0,0,.055-.14v-.56A.2.2,0,0,0,276.165,381.318Z" fill="#ff4a4a"/>
    </g>
  </g>
</svg>
