<svg xmlns="http://www.w3.org/2000/svg" width="20" height="16.105" viewBox="0 0 20 16.105">
  <g id="Iconly_Light-Outline_Show" data-name="Iconly/Light-Outline/Show" transform="translate(-2 -4)">
    <g id="Show" transform="translate(2 4)">
      <path id="Combined-Shape" d="M10,0c4.136,0,7.85,2.9,9.936,7.756a.743.743,0,0,1,0,.592C17.854,13.2,14.139,16.1,10,16.105H10c-4.136,0-7.85-2.9-9.936-7.757a.751.751,0,0,1,0-.592C2.147,2.9,5.862,0,10,0Zm0,1.5c-3.436,0-6.57,2.444-8.43,6.552C3.43,12.161,6.563,14.6,10,14.606s6.57-2.444,8.43-6.553C16.57,3.944,13.437,1.5,10,1.5Zm0,2.641A3.911,3.911,0,1,1,6.089,8.053,3.917,3.917,0,0,1,10,4.141Zm0,1.5a2.411,2.411,0,1,0,2.412,2.412A2.414,2.414,0,0,0,10,5.641Z" fill="#32146d" fill-rule="evenodd"/>
    </g>
  </g>
</svg>
