<svg xmlns="http://www.w3.org/2000/svg" width="27.036" height="28.089" viewBox="0 0 27.036 28.089">
  <g id="Grupo_871" data-name="Grupo 871" transform="translate(-15 -223)">
    <path id="Trazado_1907" data-name="Trazado 1907" d="M56.633,5.267A2.633,2.633,0,1,0,54,2.633a2.636,2.636,0,0,0,2.633,2.633m0-4.565A1.931,1.931,0,1,1,54.7,2.633,1.934,1.934,0,0,1,56.633.7" transform="translate(-20.039 223)" fill="#fff"/>
    <path id="Trazado_1909" data-name="Trazado 1909" d="M23.349,17H19.838a3.676,3.676,0,0,0-3.1,1.71,3.66,3.66,0,0,0-1.466-.306H11.762a3.66,3.66,0,0,0-1.466.306A3.676,3.676,0,0,0,7.2,17H3.687A3.691,3.691,0,0,0,0,20.687v5.091a2.462,2.462,0,0,0,2.13,2.436l.68,9.177a.351.351,0,0,0,.35.325H7.725a.351.351,0,0,0,.35-.325l.635-8.564a2.453,2.453,0,0,0,1.5.792l.68,9.177a.351.351,0,0,0,.35.325H15.8a.351.351,0,0,0,.35-.325l.68-9.177a2.453,2.453,0,0,0,1.5-.792l.635,8.564a.351.351,0,0,0,.35.325h4.565a.351.351,0,0,0,.35-.325l.68-9.177a2.462,2.462,0,0,0,2.13-2.436V20.687A3.691,3.691,0,0,0,23.349,17M21.36,19.107h.468l.629,3.617-.863.719-.863-.719Zm.453-.351h-.437l-.3-1.053h1.039Zm-8.528,1.756h.468l.629,3.617-.863.719-.863-.719Zm.453-.351H13.3L13,19.107h1.039ZM5.208,19.107h.468l.629,3.617-.863.719-.863-.719Zm.453-.351H5.224l-.3-1.053H5.962Zm2.415,9.122L7.4,37.014H5.618V28.06a.176.176,0,0,0-.351,0v8.954H3.486l-.677-9.141V21.038a.176.176,0,1,0-.351,0v6.5A1.758,1.758,0,0,1,.7,25.778V20.687A2.988,2.988,0,0,1,3.687,17.7h.878a.174.174,0,0,0,.007.048l.321,1.124-.676,3.888a.175.175,0,0,0,.06.165l1.053.878a.175.175,0,0,0,.225,0l1.053-.878a.176.176,0,0,0,.06-.165l-.676-3.888.321-1.124A.174.174,0,0,0,6.32,17.7H7.2a2.976,2.976,0,0,1,2.486,1.347,3.685,3.685,0,0,0-1.608,3.042v5.786Zm8.427,1.06v-6.5a.176.176,0,0,0-.351,0v6.84l-.677,9.136H13.694V29.465a.176.176,0,1,0-.351,0v8.954H11.562l-.677-9.141v-5.43a.176.176,0,0,0-.351,0v5.091a1.758,1.758,0,0,1-1.756-1.756V22.091a2.988,2.988,0,0,1,2.985-2.985h.878a.174.174,0,0,0,.007.048l.321,1.124-.676,3.888a.175.175,0,0,0,.06.165l1.053.878a.175.175,0,0,0,.225,0l1.053-.878a.176.176,0,0,0,.06-.165l-.676-3.888.321-1.124a.174.174,0,0,0,.007-.048h.878a2.988,2.988,0,0,1,2.985,2.985v5.091A1.758,1.758,0,0,1,16.5,28.938m9.831-3.16a1.758,1.758,0,0,1-1.756,1.756V23.145a.176.176,0,1,0-.351,0v4.733l-.677,9.136H21.769V28.06a.176.176,0,0,0-.351,0v8.954H19.638l-.677-9.141V22.091a3.685,3.685,0,0,0-1.608-3.042A2.976,2.976,0,0,1,19.838,17.7h.878a.174.174,0,0,0,.007.048l.321,1.124-.676,3.888a.175.175,0,0,0,.06.165l1.053.878a.175.175,0,0,0,.225,0l1.053-.878a.175.175,0,0,0,.06-.165l-.676-3.888.321-1.124a.174.174,0,0,0,.007-.048h.878a2.988,2.988,0,0,1,2.985,2.985Z" transform="translate(15 211.969)" fill="#fff"/>
    <path id="Trazado_1910" data-name="Trazado 1910" d="M10.633,5.267A2.633,2.633,0,1,0,8,2.633a2.636,2.636,0,0,0,2.633,2.633m0-4.565A1.931,1.931,0,1,1,8.7,2.633,1.934,1.934,0,0,1,10.633.7" transform="translate(9.809 223)" fill="#fff"/>
    <path id="Trazado_1911" data-name="Trazado 1911" d="M33.633,9.267A2.633,2.633,0,1,0,31,6.633a2.636,2.636,0,0,0,2.633,2.633m0-4.565A1.931,1.931,0,1,1,31.7,6.633,1.934,1.934,0,0,1,33.633,4.7" transform="translate(-5.115 220.405)" fill="#fff"/>
  </g>
</svg>
