<svg xmlns="http://www.w3.org/2000/svg" width="24" height="24" viewBox="0 0 24 24">
  <g id="Grupo_87" data-name="Grupo 87" transform="translate(-219.743 -371.268)">
    <rect id="Rectángulo_421" data-name="Rectángulo 421" width="24" height="24" transform="translate(219.743 371.268)" fill="none"/>
    <path id="Rectángulo_422" data-name="Rectángulo 422" d="M1.182,0H17.3a1.182,1.182,0,0,1,1.182,1.182V2.234a4.572,4.572,0,0,1-4.572,4.572H4.572A4.572,4.572,0,0,1,0,2.234V1.182A1.182,1.182,0,0,1,1.182,0Z" transform="translate(222.5 374.441)" fill="none" stroke="#fff" stroke-miterlimit="10" stroke-width="1.5"/>
    <path id="Trazado_66" data-name="Trazado 66" d="M227.072,381.248a4.551,4.551,0,0,1-2.57-.792v9.178a3.634,3.634,0,0,0,3.634,3.634h7.232a3.615,3.615,0,0,0,3.615-3.615v-9.2a4.545,4.545,0,0,1-2.569.792Z" fill="none" stroke="#fff" stroke-miterlimit="10" stroke-width="1.5"/>
    <rect id="Rectángulo_423" data-name="Rectángulo 423" width="1.186" height="2.135" rx="0.365" transform="translate(228.399 380.18)" fill="none" stroke="#fff" stroke-miterlimit="10" stroke-width="1.5"/>
    <rect id="Rectángulo_424" data-name="Rectángulo 424" width="1.186" height="2.135" rx="0.365" transform="translate(233.9 380.18)" fill="none" stroke="#fff" stroke-miterlimit="10" stroke-width="1.5"/>
    <path id="Rectángulo_425" data-name="Rectángulo 425" d="M1.93,0h.413a.328.328,0,0,1,.328.328V3.747a.328.328,0,0,1-.328.328H.328A.328.328,0,0,1,0,3.747V1.93A1.93,1.93,0,0,1,1.93,0Z" transform="translate(221.831 386.126)" fill="none" stroke="#fff" stroke-miterlimit="10" stroke-width="1.5"/>
    <path id="Rectángulo_426" data-name="Rectángulo 426" d="M.328,0H2.343a.328.328,0,0,1,.328.328V3.747a.328.328,0,0,1-.328.328H1.93A1.93,1.93,0,0,1,0,2.145V.328A.328.328,0,0,1,.328,0Z" transform="translate(241.655 390.201) rotate(-180)" fill="none" stroke="#fff" stroke-miterlimit="10" stroke-width="1.5"/>
    <path id="Rectángulo_427" data-name="Rectángulo 427" d="M.992,0h.843a.992.992,0,0,1,.992.992v.181a0,0,0,0,1,0,0H0a0,0,0,0,1,0,0V.992A.992.992,0,0,1,.992,0Z" transform="translate(235.086 373.268)" fill="none" stroke="#fff" stroke-miterlimit="10" stroke-width="1.5"/>
    <path id="Rectángulo_428" data-name="Rectángulo 428" d="M.992,0h.843a.992.992,0,0,1,.992.992v.181a0,0,0,0,1,0,0H0a0,0,0,0,1,0,0V.992A.992.992,0,0,1,.992,0Z" transform="translate(225.572 373.268)" fill="none" stroke="#fff" stroke-miterlimit="10" stroke-width="1.5"/>
  </g>
</svg>
