<svg xmlns="http://www.w3.org/2000/svg" width="26" height="26" viewBox="0 0 26 26">
  <g id="Layer_2" data-name="Layer 2" transform="translate(-0.163 -0.163)">
    <g id="invisible_box" data-name="invisible box">
      <rect id="Rectángulo_570" data-name="Rectángulo 570" width="26" height="26" transform="translate(0.163 0.163)" fill="none"/>
    </g>
    <g id="icons_Q2" data-name="icons Q2" transform="translate(2.194 2.194)">
      <path id="Trazado_1892" data-name="Trazado 1892" d="M4,24.842H4a1.1,1.1,0,0,1,1.1-1.1H24.842a1.1,1.1,0,0,1,1.1,1.1h0a1.1,1.1,0,0,1-1.1,1.1H5.1A1.1,1.1,0,0,1,4,24.842ZM9.485,12.776a1.1,1.1,0,0,0-1.1-1.1h0a1.1,1.1,0,0,0-1.1,1.1v8.776H9.485ZM22.648,5.1a1.1,1.1,0,0,0-1.1-1.1h0a1.1,1.1,0,0,0-1.1,1.1V21.551h2.194ZM13.873,9.485a1.1,1.1,0,0,0-1.1-1.1h0a1.1,1.1,0,0,0-1.1,1.1V21.551h2.194Zm4.388,4.936a1.1,1.1,0,0,0-1.1-1.1h0a1.1,1.1,0,0,0-1.1,1.1v7.13H18.26Z" transform="translate(-4 -4)" fill="#fff"/>
    </g>
  </g>
</svg>
