<svg xmlns="http://www.w3.org/2000/svg" width="42.893" height="38.567" viewBox="0 0 42.893 38.567">
  <g id="Layer_2" data-name="Layer 2" transform="translate(-1.994 -2.962)">
    <g id="cloud-upload" transform="translate(1.994 2.962)">
      <path id="Trazado_1913" data-name="Trazado 1913" d="M18.132,11.615a2.138,2.138,0,0,0-2.993,0l-6.414,6.2a2.138,2.138,0,1,0,2.951,3.079l2.8-2.715V30.239a2.138,2.138,0,1,0,4.276,0V18.286l2.758,2.78a2.147,2.147,0,1,0,3.036-3.036Z" transform="translate(4.781 6.19)" fill="#707070"/>
      <path id="Trazado_1914" data-name="Trazado 1914" d="M35.512,11.6a12.829,12.829,0,0,0-24.247,0A10.691,10.691,0,0,0,4.68,29.278a2.138,2.138,0,1,0,3.207-2.715A6.414,6.414,0,0,1,12.7,15.872h.214a2.138,2.138,0,0,0,2.138-1.711,8.553,8.553,0,0,1,16.763,0,2.138,2.138,0,0,0,2.138,1.711h.128A6.414,6.414,0,0,1,38.89,26.562,2.143,2.143,0,1,0,42.1,29.406,10.691,10.691,0,0,0,35.512,11.6Z" transform="translate(-1.994 -2.962)" fill="#707070"/>
    </g>
  </g>
</svg>
