<svg xmlns="http://www.w3.org/2000/svg" xmlns:xlink="http://www.w3.org/1999/xlink" width="27.279" height="27.279" viewBox="0 0 27.279 27.279">
  <defs>
    <clipPath id="clip-path">
      <rect id="Rectángulo_643" data-name="Rectángulo 643" width="27.279" height="27.279" fill="#fff"/>
    </clipPath>
  </defs>
  <g id="Grupo_977" data-name="Grupo 977" transform="translate(0 0)">
    <g id="Grupo_977-2" data-name="Grupo 977" transform="translate(0 0)" clip-path="url(#clip-path)">
      <path id="Trazado_1923" data-name="Trazado 1923" d="M41.186,10.331a2.719,2.719,0,1,0-2.719-2.719,2.722,2.722,0,0,0,2.719,2.719m0-4.283a1.563,1.563,0,1,1-1.563,1.563,1.565,1.565,0,0,1,1.563-1.563" transform="translate(-19.946 -2.537)" fill="#fff"/>
      <path id="Trazado_1924" data-name="Trazado 1924" d="M11.1,22.573a1.6,1.6,0,1,0,1.6,1.6,1.6,1.6,0,0,0-1.6-1.6m0,2.038a.441.441,0,1,1,.441-.441.442.442,0,0,1-.441.441" transform="translate(-4.926 -11.705)" fill="#fff"/>
      <path id="Trazado_1925" data-name="Trazado 1925" d="M27.086,11.351A13.308,13.308,0,0,0,25.532,6.97a5.842,5.842,0,0,0,.358-1.855,4.643,4.643,0,0,0-6.946-4.039,13.607,13.607,0,0,0-14.4,2.406.517.517,0,0,0-.049.042,13.7,13.7,0,0,0-3.47,4.923.533.533,0,0,0-.022.054,13.545,13.545,0,0,0-.98,4.3s0,.009,0,.014v.006C.011,13.1,0,13.367,0,13.64a13.589,13.589,0,0,0,.655,4.172l.006.019a13.556,13.556,0,0,0,.729,1.8.585.585,0,0,0,.037.071A13.636,13.636,0,0,0,27.279,13.64a13.805,13.805,0,0,0-.193-2.289M25.8,10.868h-2.35a21.144,21.144,0,0,0,1.5-2.516,12.142,12.142,0,0,1,.852,2.516M24.734,5.115a5.049,5.049,0,0,1-.371,1.716.531.531,0,0,0-.025.07,21.765,21.765,0,0,1-3.1,5.013c-1.269-1.585-3.492-4.781-3.492-6.8a3.494,3.494,0,0,1,6.989,0m-5.706,5.753h-3a1.812,1.812,0,1,1,0-3.623h1.022a17.992,17.992,0,0,0,1.977,3.623M5.155,4.494H8.3a1.812,1.812,0,1,1,0,3.623H2.448A12.553,12.553,0,0,1,5.155,4.494M3.064,13.4a11.258,11.258,0,0,0,1.928,3.623H1.625a12.432,12.432,0,0,1-.469-3.382c0-.081,0-.16.006-.241Zm6.284,0a1.812,1.812,0,1,1,0,3.623h-2A11.266,11.266,0,0,0,9.276,13.4ZM6.17,16.66c-.818-1.054-2.056-2.9-2.056-4.069a2.056,2.056,0,0,1,4.112,0c0,1.169-1.238,3.015-2.056,4.069M2.91,20.01h7.939a1.816,1.816,0,0,1,1.812,1.817,1.813,1.813,0,0,1-1.812,1.812H6.173A12.574,12.574,0,0,1,2.91,20.01m10.73,6.113a12.4,12.4,0,0,1-5.595-1.329h2.8a2.97,2.97,0,0,0,2.968-2.967,2.974,2.974,0,0,0-2.968-2.973H2.3q-.154-.333-.288-.676H9.348a2.967,2.967,0,0,0,.015-5.934,3.211,3.211,0,0,0-6.385,0H1.236a12.38,12.38,0,0,1,.71-2.971H8.3a2.967,2.967,0,1,0,0-5.935H6.6A12.463,12.463,0,0,1,17.888,1.9a4.631,4.631,0,0,0-1.3,3.214,4.8,4.8,0,0,0,.118.974h-.679a2.968,2.968,0,0,0,0,5.935h3.833c.509.671.89,1.117.94,1.175a.577.577,0,0,0,.874,0c.05-.058.431-.5.94-1.175h3.39a11.661,11.661,0,0,1,.017,3.166h-7.68a2.967,2.967,0,1,0,0,5.935h5.28a12.471,12.471,0,0,1-9.984,5m10.754-6.154h-6.05a1.812,1.812,0,1,1,0-3.623h7.481a12.4,12.4,0,0,1-1.431,3.623" transform="translate(0 0)" fill="#fff"/>
    </g>
  </g>
</svg>
