<svg id="cloud-upload" xmlns="http://www.w3.org/2000/svg" width="22.358" height="20.103" viewBox="0 0 22.358 20.103">
  <path id="Trazado_1913" data-name="Trazado 1913" d="M13.255,11.323a1.114,1.114,0,0,0-1.56,0L8.352,14.555a1.114,1.114,0,1,0,1.538,1.6l1.46-1.415V21.03a1.114,1.114,0,1,0,2.229,0V14.8l1.438,1.449A1.119,1.119,0,1,0,16.6,14.666Z" transform="translate(-1.312 -2.042)" fill="#fff"/>
  <path id="Trazado_1914" data-name="Trazado 1914" d="M19.465,7.462a6.687,6.687,0,0,0-12.638,0,5.572,5.572,0,0,0-3.433,9.217,1.114,1.114,0,1,0,1.672-1.415A3.343,3.343,0,0,1,7.573,9.691h.111A1.114,1.114,0,0,0,8.8,8.8a4.458,4.458,0,0,1,8.738,0,1.114,1.114,0,0,0,1.114.892h.067a3.343,3.343,0,0,1,2.508,5.572A1.117,1.117,0,1,0,22.9,16.746a5.572,5.572,0,0,0-3.433-9.284Z" transform="translate(-1.994 -2.962)" fill="#fff"/>
</svg>
