<svg xmlns="http://www.w3.org/2000/svg" width="157.915" height="43.425" viewBox="0 0 157.915 43.425">
  <g id="Grupo_9" data-name="Grupo 9" transform="translate(-780.83 -257.718)">
    <g id="Grupo_1" data-name="Grupo 1" transform="translate(885.78 257.718)">
      <path id="Trazado_1" data-name="Trazado 1" d="M930.671,257.718a5.308,5.308,0,0,0-5.034,4.413,3.781,3.781,0,0,0,3.793,4.414,5.309,5.309,0,0,0,5.033-4.414A3.78,3.78,0,0,0,930.671,257.718Z" transform="translate(-925.595 -257.718)" fill="#e93541"/>
    </g>
    <g id="Grupo_2" data-name="Grupo 2" transform="translate(780.83 266.792)">
      <path id="Trazado_2" data-name="Trazado 2" d="M793.45,287.2l-3.334-15h-8.091l6.471,23.39c-1.5,2.991-3.269,4.07-6.7,4.07l-.964,6.865c6.817.343,11.615-2.746,15.457-10.543l11.728-23.782h-7.846Z" transform="translate(-780.83 -272.194)" fill="#fff"/>
    </g>
    <g id="Grupo_3" data-name="Grupo 3" transform="translate(804.735 267.004)">
      <path id="Trazado_3" data-name="Trazado 3" d="M828.424,271.289a15.275,15.275,0,0,0-14.814,12.945c-1.027,7.307,3.967,12.946,11.175,12.946A15.276,15.276,0,0,0,839.6,284.234C840.626,276.928,835.633,271.289,828.424,271.289Zm-2.633,18.731c-3.187,0-5.315-2.3-4.826-5.786a6.519,6.519,0,0,1,6.452-5.786c3.188,0,5.316,2.305,4.826,5.786A6.519,6.519,0,0,1,825.791,290.02Z" transform="translate(-813.477 -271.289)" fill="#fff"/>
    </g>
    <g id="Grupo_4" data-name="Grupo 4" transform="translate(830.151 267.694)">
      <path id="Trazado_4" data-name="Trazado 4" d="M876.012,272.194H867.43l-8.865,10.739,1.509-10.739h-7.27l-.092.046-3.439,24.472h7.355l1.523-10.837,6.323,10.837h8.336l-7.447-12.259Z" transform="translate(-849.274 -272.194)" fill="#fff"/>
    </g>
    <g id="Grupo_5" data-name="Grupo 5" transform="translate(856.22 267.341)">
      <path id="Trazado_5" data-name="Trazado 5" d="M894.761,278.4l-.6,4.3.007.029-1.455,10.4-.489,3.53H884.88l3.434-24.665c.03-.015.06-.271.092-.271h7.27Z" transform="translate(-884.88 -271.711)" fill="#e93541"/>
    </g>
    <g id="Grupo_6" data-name="Grupo 6" transform="translate(882.291 267.694)">
      <path id="Trazado_6" data-name="Trazado 6" d="M920.863,296.712h7.355l3.446-24.518h-7.355Z" transform="translate(-920.863 -272.194)" fill="#fff"/>
    </g>
    <g id="Grupo_7" data-name="Grupo 7" transform="translate(895.851 258.168)">
      <path id="Trazado_7" data-name="Trazado 7" d="M944.207,268.845h-3.286l-.992,7.061h3.286l-2.454,17.457h7.355l2.454-17.457h4.56l.992-7.061h-4.56c.4-2.845,2.331-3.678,5.043-3.433l.993-7.062C949.526,257.86,945.171,261.98,944.207,268.845Z" transform="translate(-939.929 -258.311)" fill="#fff"/>
    </g>
    <g id="Grupo_8" data-name="Grupo 8" transform="translate(911.56 266.792)">
      <path id="Trazado_8" data-name="Trazado 8" d="M981.617,272.194l-6.718,15-3.334-15h-8.091l6.471,23.39c-1.5,2.991-3.269,4.07-6.7,4.07l-.965,6.865c6.817.343,11.615-2.746,15.457-10.543l11.728-23.782Z" transform="translate(-962.279 -272.194)" fill="#fff"/>
    </g>
    <path id="Trazado_9" data-name="Trazado 9" d="M913.112,294.557H903.8c-14.188-21.577,5.112-29.308,13.218-31.509-.005.022-.008.046-.011.068a6.208,6.208,0,0,0,.241,2.8C891.049,276.893,913.112,294.557,913.112,294.557Z" transform="translate(-32.691 -1.286)" fill="#e93541"/>
    <path id="Trazado_10" data-name="Trazado 10" d="M913.112,294.557H903.8c-14.188-21.577,5.112-29.308,13.218-31.509-.005.022-.008.046-.011.068a6.208,6.208,0,0,0,.241,2.8C891.049,276.893,913.112,294.557,913.112,294.557Z" transform="translate(-32.691 -1.286)" fill="#e93541"/>
    <path id="Trazado_11" data-name="Trazado 11" d="M913.112,294.557H903.8c-14.188-21.577,5.112-29.308,13.218-31.509-.005.022-.008.046-.011.068a6.208,6.208,0,0,0,.241,2.8C891.049,276.893,913.112,294.557,913.112,294.557Z" transform="translate(-32.691 -1.286)" fill="#e93541"/>
    <path id="Trazado_12" data-name="Trazado 12" d="M913.112,294.557H903.8c-14.188-21.577,5.112-29.308,13.218-31.509-.005.022-.008.046-.011.068a6.208,6.208,0,0,0,.241,2.8C891.049,276.893,913.112,294.557,913.112,294.557Z" transform="translate(-32.691 -1.286)" fill="#e93541"/>
  </g>
</svg>
